<?xml version="1.0" encoding="UTF-8"?>
<svg id="Layer_2" data-name="Layer 2" xmlns="http://www.w3.org/2000/svg" viewBox="0 0 136.58 103.04">
  <defs>
    <style>
      .cls-1 {
        fill: none;
      }

      .cls-2 {
        fill: #d5147a;
      }

      .cls-3 {
        fill: #40c2d2;
      }
    </style>
  </defs>
  <g id="Layer_1-2" data-name="Layer 1">
    <g>
      <g>
        <rect class="cls-1" x="9.09" y="21.81" width="33.35" height="7.91" transform="translate(-10.67 25.77) rotate(-45)"/>
        <path class="cls-3" d="m101.82.04l-16.77,16.77,29.17,29.17-5.59,5.59-29.17-29.17-5.59,5.59,29.17,29.17-5.59,5.59-11.11-11.25-17.99,17.99-17.99-17.99-11.25,11.25-5.56-5.63,29.17-29.17-5.59-5.59-29.17,29.17-5.59-5.59,29.17-29.17L34.76,0,0,34.76l16.77,16.77,5.59,5.59,5.59,5.59,5.56,5.63,16.77,16.77,18.06,17.92,17.92-17.92,16.77-16.77,5.59-5.59,5.59-5.59,5.59-5.59,16.77-16.77L101.82.04ZM16.77,40.35l-5.59-5.59,23.58-23.58,5.59,5.59-23.58,23.58Zm51.43,51.64l-17.92-18.06-.93-.93-4.66-4.66,5.52-5.52,17.99,17.99,18.13-18.13,5.66,5.52-23.8,23.8Zm51.61-51.61l-23.58-23.58,5.59-5.59,23.58,23.58-5.59,5.59Z"/>
      </g>
      <path class="cls-2" d="m86.35,51.5l-17.99,17.99-17.99-17.99-16.85,16.85,34.83,34.69,34.69-34.69-16.7-16.85Zm-18.13,40.5l-23.51-23.65,5.52-5.52,17.99,17.99,18.13-18.13,5.66,5.52-23.8,23.8Z"/>
      <path class="cls-2" d="m68.29,55.15c-4.49,0-8.15-3.66-8.15-8.15s3.66-8.15,8.15-8.15,8.15,3.66,8.15,8.15-3.66,8.15-8.15,8.15Zm0-13.3c-2.84,0-5.15,2.31-5.15,5.15s2.31,5.15,5.15,5.15,5.15-2.31,5.15-5.15-2.31-5.15-5.15-5.15Z"/>
    </g>
  </g>
</svg>