<!DOCTYPE svg PUBLIC "-//W3C//DTD SVG 1.1//EN" "http://www.w3.org/Graphics/SVG/1.1/DTD/svg11.dtd">
<!-- Uploaded to: SVG Repo, www.svgrepo.com, Transformed by: SVG Repo Mixer Tools -->
<svg fill="#000000" height="800px" width="800px" version="1.1" id="Layer_1" xmlns="http://www.w3.org/2000/svg" xmlns:xlink="http://www.w3.org/1999/xlink" viewBox="0 0 512 512" xml:space="preserve" stroke="#000000" stroke-width="2.56">
<g id="SVGRepo_bgCarrier" stroke-width="0"/>
<g id="SVGRepo_tracerCarrier" stroke-linecap="round" stroke-linejoin="round"/>
<g id="SVGRepo_iconCarrier"> <g> <g> <path d="M461.639,155.279c-12.889,0-23.082,4.867-33.574,12.849V155.27c0-27.762-22.59-50.352-50.361-50.352 c-27.771,0-50.361,22.59-50.361,50.352v59.307H184.656V155.27c0-27.762-22.59-50.352-50.361-50.352 c-27.771,0-50.361,22.59-50.361,50.352v12.857c-8.393-7.982-20.684-12.849-33.574-12.849C22.59,155.279,0,177.844,0,205.574 v100.852c0,27.729,22.59,50.295,50.361,50.295c12.889,0,25.18-4.865,33.574-12.848v12.865c0,27.762,22.59,50.344,50.361,50.344 s50.361-22.582,50.361-50.344v-58.225h142.688v58.225c0,27.762,22.59,50.344,50.361,50.344c27.771,0,50.361-22.582,50.361-50.344 v-12.865c10.492,7.984,20.684,12.848,33.574,12.848c27.771,0,50.361-22.566,50.361-50.295V205.574 C512,177.844,489.41,155.279,461.639,155.279z M83.934,306.426c0,18.475-15.061,33.508-33.574,33.508 c-18.512,0-33.574-15.033-33.574-33.508V205.574c0-18.475,15.061-33.508,33.574-33.508c18.512,0,33.574,15.033,33.574,33.508 V306.426z M167.869,222.426v67.148v67.164c0,18.5-15.061,33.557-33.574,33.557c-18.512,0-33.574-15.057-33.574-33.557v-50.311 V205.574V155.27c0-18.508,15.061-33.566,33.574-33.566c18.512,0,33.574,15.057,33.574,33.566V222.426z M327.344,281.725H184.656 v-50.361h142.688V281.725z M411.279,205.574v100.852v50.311c0,18.5-15.061,33.557-33.574,33.557 c-18.512,0-33.574-15.057-33.574-33.557v-67.164v-67.148V155.27c0-18.508,15.061-33.566,33.574-33.566 c18.512,0,33.574,15.057,33.574,33.566V205.574z M495.213,306.426c0,18.475-15.061,33.508-33.574,33.508 c-18.512,0-33.574-15.033-33.574-33.508V205.574c0-18.475,15.061-33.508,33.574-33.508c18.512,0,33.574,15.033,33.574,33.508 V306.426z"/> </g> </g> </g>
</svg>